<svg aria-hidden="true" style="position: absolute; width: 0; height: 0; overflow: hidden;" version="1.1" xmlns="http://www.w3.org/2000/svg" xmlns:xlink="http://www.w3.org/1999/xlink">
<defs>
<symbol id="icon-logo-white" viewBox="0 0 75 32">
<path fill="#fff" style="fill: var(--color1, #fff)" d="M8.562 8.276c0.24-0.026 0.518-0.040 0.8-0.040 4.401 0 7.968 3.567 7.968 7.968 0 4.161-3.19 7.578-7.258 7.937l-0.030 0.002c-0.204 0.018-0.441 0.029-0.68 0.029-4.401 0-7.968-3.567-7.968-7.968 0-4.119 3.125-7.508 7.134-7.925l0.034-0.003zM10.151 23.3c3.603-0.394 6.382-3.421 6.382-7.096 0-3.941-3.195-7.136-7.136-7.136-0.334 0-0.663 0.023-0.985 0.067l0.037-0.004c-3.512 0.484-6.189 3.466-6.189 7.073 0 3.941 3.195 7.136 7.136 7.136 0.266 0 0.528-0.015 0.786-0.043l-0.032 0.003z"></path>
<path fill="#fff" style="fill: var(--color1, #fff)" d="M12.42 12.062l0.917-0.006c0.018 2.647 0.020 5.295 0.004 7.942l-0.948 0.012-0.002-4.973-0.004-1.363c-0.53 1.005-1.131 1.972-1.704 2.953-0.364 0.622-0.7 1.335-1.15 1.894-0.058 0.021-0.126 0.033-0.196 0.033-0.049 0-0.097-0.006-0.143-0.017l0.004 0.001c-0.053-0.014-0.1-0.034-0.142-0.061l0.002 0.001c-0.243-0.194-2.522-4.198-2.886-4.805 0.093 0.72 0.036 1.506 0.035 2.233l-0.003 4.084-0.97 0.004c0.029-2.643-0.018-5.288 0.008-7.931l1.056 0.005c0.469 0.839 0.973 1.661 1.46 2.491 0.517 0.882 1.021 1.774 1.571 2.636 0.56-1.021 1.185-2.012 1.787-3.009 0.425-0.707 0.828-1.452 1.305-2.124zM60.98 13.948c0.187-0.012 0.379-0.018 0.566-0.014 0.7 0.012 1.413 0.387 1.892 0.883 0.596 0.618 0.873 1.479 0.853 2.329-0.020 0.864-0.344 1.686-0.98 2.279-0.508 0.483-1.197 0.78-1.954 0.78-0.037 0-0.074-0.001-0.111-0.002l0.005 0c-0.884-0.033-1.471-0.406-2.065-1.040-0.023 0.363-0.016 0.73-0.020 1.093 0.004 0.722 0.003 1.444-0.004 2.166-0.336 0.033-0.676 0.030-1.012-0.009 0.055-1.118 0.006-2.263 0.006-3.384 0-1.667 0.027-3.338-0.011-5.004l1.002-0.004c-0.020 0.372-0.015 0.748-0.020 1.12 0.542-0.676 0.995-1.003 1.852-1.191zM61.414 19.308c0.622-0.116 1.105-0.371 1.47-0.908 0.357-0.534 0.485-1.191 0.356-1.82-0.112-0.561-0.444-1.092-0.933-1.398-0.385-0.241-0.8-0.308-1.244-0.295-0.618 0.116-1.118 0.336-1.488 0.874-0.262 0.393-0.419 0.877-0.419 1.397 0 0.153 0.014 0.304 0.040 0.45l-0.002-0.015c0.117 0.593 0.464 1.089 0.943 1.4l0.008 0.005c0.395 0.249 0.812 0.32 1.27 0.312zM42.294 11.437c0.164 0.168 0.213 0.611 0.311 0.847-1.051 0.442-2.574 0.351-3.42 1.158-0.505 0.483-0.626 1.15-0.636 1.816 0.452-0.559 0.948-1.012 1.689-1.135 0.749-0.125 1.543 0.020 2.158 0.476 0.66 0.492 1.028 1.204 1.138 2.011 0.023 0.146 0.035 0.314 0.035 0.485 0 0.779-0.267 1.496-0.715 2.064l0.005-0.007c-0.412 0.458-0.892 0.796-1.495 0.943-0.764 0.188-1.637 0.091-2.311-0.327-0.768-0.477-1.211-1.265-1.402-2.132-0.287-1.294-0.231-3.229 0.516-4.379 0.658-1.013 1.652-1.214 2.756-1.476 0.459-0.109 0.911-0.244 1.371-0.345zM40.548 19.314c0.651-0.096 1.134-0.252 1.539-0.811 0.397-0.548 0.524-1.24 0.402-1.899-0.099-0.532-0.379-1.018-0.836-1.319-0.265-0.177-0.587-0.29-0.934-0.306l-0.004-0c-0.633 0.071-1.154 0.202-1.575 0.724-0.312 0.394-0.5 0.898-0.5 1.447 0 0.115 0.008 0.228 0.024 0.339l-0.002-0.013c0.080 0.567 0.389 1.113 0.855 1.451 0.315 0.228 0.652 0.329 1.031 0.388zM28.056 11.84c0.37-0.036 0.755-0.018 1.127-0.021-0.051 2.724 0.009 5.456-0.006 8.18l-0.981-0.009 0.002-4.819c-0.003-0.552-0.014-1.106 0.020-1.657-0.904 1.669-1.719 3.412-2.709 5.031l-0.637-0.004c-0.975-1.598-1.787-3.321-2.689-4.964 0.036 0.754 0.012 1.518 0.012 2.273l0.002 4.149c-0.327-0.009-0.652 0.012-0.98-0.003v-4.964c0.002-1.067-0.020-2.14 0.039-3.205h1.091c0.311 0.532 0.574 1.102 0.856 1.65 0.654 1.271 1.301 2.556 2.006 3.799 1.037-1.758 1.858-3.652 2.849-5.436zM33.101 13.95c0.149-0.008 0.3-0.013 0.449-0.017 0.786-0.012 1.568 0.202 2.133 0.771 0.758 0.761 0.834 1.721 0.834 2.734-1.636 0.021-3.271-0.001-4.907 0.006 0.051 0.269 0.101 0.528 0.229 0.774 0.256 0.492 0.7 0.861 1.23 1.022 0.636 0.193 1.275 0.080 1.846-0.236 0.192-0.131 0.367-0.283 0.546-0.43 0.257 0.147 0.516 0.268 0.788 0.386-0.404 0.544-0.924 0.941-1.581 1.121-0.843 0.231-1.87 0.14-2.628-0.306-0.657-0.392-1.136-1.023-1.32-1.771l-0.004-0.020c-0.224-0.903-0.099-1.892 0.391-2.686 0.473-0.765 1.136-1.144 1.994-1.349zM31.621 16.675c0.809-0.006 1.62-0.009 2.429-0.007l1.513 0.002c-0.148-0.622-0.295-1.197-0.873-1.561-0.423-0.267-0.936-0.307-1.422-0.267-0.526 0.122-0.969 0.361-1.269 0.824-0.203 0.314-0.293 0.652-0.378 1.009zM53.436 13.949c0.147-0.008 0.293-0.012 0.44-0.015 0.784-0.009 1.566 0.224 2.125 0.796 0.736 0.752 0.804 1.712 0.8 2.705-1.628 0.025-3.26 0.005-4.889 0.009 0.022 0.297 0.075 0.553 0.213 0.82 0.257 0.495 0.682 0.822 1.213 0.978 0.711 0.209 1.358 0.054 1.986-0.293 0.154-0.107 0.29-0.236 0.429-0.359 0.258 0.14 0.52 0.252 0.791 0.36-0.425 0.56-0.955 0.965-1.643 1.14-0.855 0.217-1.836 0.133-2.6-0.327-0.662-0.412-1.141-1.064-1.316-1.832l-0.004-0.020c-0.204-0.876-0.062-1.884 0.428-2.645s1.161-1.129 2.025-1.316zM51.905 16.673c0.775-0.003 1.551-0.013 2.326-0.004l1.643-0.001c-0.171-0.639-0.349-1.261-0.967-1.612-0.382-0.218-0.849-0.255-1.281-0.212-0.513 0.085-0.946 0.278-1.264 0.707-0.252 0.34-0.36 0.718-0.457 1.123zM70.342 14.036c0.991-0.047 1.997-0.013 2.991-0.010-0.051 1.985-0.005 3.984-0.006 5.971l-1.022-0.011v-2.040c-0.489-0.003-1.131-0.098-1.596 0.012-0.145 0.035-0.171 0.108-0.252 0.22-0.345 0.612-0.729 1.202-1.075 1.813-0.386 0.009-0.772 0.011-1.158 0.004 0.378-0.709 0.891-1.612 1.391-2.227-0.083-0.040-0.141-0.071-0.198-0.103l0.022 0.011c-0.436-0.24-0.771-0.628-0.898-1.114-0.042-0.154-0.065-0.33-0.065-0.512 0-0.377 0.102-0.729 0.28-1.032l-0.005 0.010c0.365-0.606 0.938-0.84 1.592-0.994zM71.389 17.090c0.302-0.003 0.61 0.007 0.91-0.015-0.004-0.706-0.002-1.412 0.006-2.118-0.599-0.002-1.207-0.018-1.804 0.015-0.378 0.118-0.673 0.245-0.876 0.609-0.082 0.146-0.13 0.32-0.13 0.505 0 0.114 0.018 0.224 0.052 0.326l-0.002-0.007c0.088 0.254 0.292 0.433 0.532 0.542 0.405 0.182 0.877 0.147 1.312 0.142zM45.609 14.090c1.293-0.046 2.598-0.016 3.893-0.018l-0.006 5.924c-0.323-0.005-0.646-0.019-0.966 0.025l-0.004-5.019-0.549 0.022c-0.49-0.024-0.99 0.009-1.482 0.020-0.013 1.195-0.018 3.67-0.854 4.554-0.418 0.441-0.889 0.486-1.458 0.491-0.006-0.341-0.022-0.664-0.048-0.985l0.004 0.055c0.149-0.013 0.307-0.024 0.452-0.060 0.9-0.228 0.916-3.203 0.939-3.953 0.009-0.292-0.056-0.818 0.080-1.056zM66.592 14.046l0.133-0.008c0.015 0.021 0.037 0.039 0.047 0.065 0.044 0.116-0.001 5.292 0 5.89l-0.868 0.006-0.064-0.012c-0.139-0.252 0-5.183-0.043-5.929 0.265 0.004 0.53-0.005 0.795-0.012zM65.778 11.812l0.999-0.003c-0.011 0.354-0.003 0.708 0.002 1.062l-1.027 0.008c0.014-0.356 0.023-0.711 0.027-1.068z"></path>
</symbol>
<symbol id="icon-facebook" viewBox="0 0 32 32">
<path d="M29.333 16.405c0-7.409-5.969-13.415-13.333-13.415s-13.333 6.006-13.333 13.415c0 6.696 4.876 12.245 11.25 13.252v-9.374h-3.385v-3.878h3.385v-2.955c0-3.362 1.991-5.219 5.036-5.219 1.459 0 2.985 0.262 2.985 0.262v3.301h-1.681c-1.656 0-2.173 1.034-2.173 2.095v2.516h3.698l-0.591 3.878h-3.107v9.374c6.374-1.006 11.25-6.556 11.25-13.252z"></path>
</symbol>
<symbol id="icon-instagram" viewBox="0 0 32 32">
<path d="M15.998 6.161c3.206 0 3.585 0.014 4.846 0.071 1.172 0.052 1.804 0.248 2.226 0.412 0.558 0.216 0.961 0.478 1.378 0.895 0.422 0.422 0.679 0.82 0.9 1.378 0.164 0.422 0.361 1.059 0.412 2.226 0.056 1.266 0.071 1.645 0.071 4.847s-0.014 3.585-0.071 4.847c-0.052 1.172-0.248 1.804-0.412 2.227-0.216 0.558-0.478 0.961-0.895 1.377-0.422 0.422-0.82 0.679-1.378 0.9-0.422 0.164-1.060 0.361-2.226 0.412-1.266 0.056-1.645 0.071-4.847 0.071s-3.585-0.014-4.847-0.071c-1.172-0.052-1.804-0.248-2.226-0.412-0.558-0.216-0.961-0.478-1.378-0.895-0.422-0.422-0.679-0.82-0.9-1.378-0.164-0.422-0.361-1.060-0.412-2.226-0.056-1.266-0.071-1.645-0.071-4.847s0.014-3.585 0.071-4.847c0.052-1.172 0.248-1.804 0.412-2.226 0.216-0.558 0.478-0.961 0.895-1.378 0.422-0.422 0.82-0.679 1.378-0.9 0.422-0.164 1.059-0.361 2.226-0.412 1.261-0.056 1.641-0.071 4.847-0.071h0.001zM15.998 4.001c-3.258 0-3.665 0.014-4.945 0.071-1.275 0.056-2.151 0.262-2.91 0.558-0.792 0.309-1.462 0.717-2.127 1.387-0.67 0.666-1.078 1.336-1.387 2.123-0.295 0.764-0.502 1.636-0.558 2.91-0.056 1.285-0.071 1.692-0.071 4.949s0.014 3.665 0.071 4.945c0.056 1.275 0.262 2.151 0.558 2.91 0.31 0.792 0.717 1.462 1.387 2.127 0.665 0.665 1.336 1.078 2.123 1.383 0.764 0.295 1.636 0.502 2.91 0.558 1.279 0.056 1.687 0.071 4.945 0.071s3.666-0.014 4.945-0.071c1.275-0.056 2.151-0.262 2.91-0.558 0.787-0.305 1.458-0.717 2.123-1.383s1.078-1.336 1.383-2.123c0.295-0.764 0.502-1.635 0.558-2.91 0.056-1.279 0.071-1.687 0.071-4.945s-0.014-3.665-0.071-4.945c-0.056-1.275-0.262-2.151-0.558-2.91-0.295-0.797-0.703-1.467-1.373-2.133-0.665-0.665-1.336-1.078-2.123-1.383-0.764-0.295-1.635-0.502-2.91-0.558-1.284-0.061-1.692-0.075-4.949-0.075l-0.001 0.001z"></path>
<path d="M15.998 9.836c-3.402 0-6.163 2.76-6.163 6.163s2.76 6.163 6.163 6.163c3.403 0 6.163-2.76 6.163-6.163s-2.76-6.163-6.163-6.163zM15.998 19.997c-2.208 0-3.998-1.79-3.998-3.998s1.79-3.998 3.998-3.998c2.208 0 3.998 1.79 3.998 3.998s-1.79 3.998-3.998 3.998z"></path>
<path d="M23.843 9.592c0 0.795-0.644 1.439-1.439 1.439s-1.439-0.644-1.439-1.439 0.644-1.439 1.439-1.439c0.795 0 1.439 0.644 1.439 1.439z"></path>
</symbol>
<symbol id="icon-menu" viewBox="0 0 32 32">
<path d="M5.333 8h21.333v2.667h-21.333v-2.667zM5.333 14.667h21.333v2.667h-21.333v-2.667zM5.333 21.333h21.333v2.667h-21.333v-2.667z"></path>
</symbol>
<symbol id="icon-close" viewBox="0 0 32 32">
  <path d="M18 6L6 18M6 6l12 12" stroke="currentColor" stroke-width="2"/>
</symbol>
<symbol id="icon-youtube" viewBox="0 0 32 32">
<path d="M28.791 9.604c-0.152-0.563-0.449-1.077-0.861-1.49s-0.925-0.711-1.489-0.864c-2.088-0.573-10.441-0.583-10.441-0.583s-8.352-0.009-10.441 0.539c-0.563 0.16-1.075 0.462-1.487 0.878s-0.711 0.929-0.867 1.493c-0.551 2.088-0.556 6.419-0.556 6.419s-0.005 4.352 0.541 6.419c0.307 1.143 1.207 2.045 2.351 2.353 2.109 0.573 10.44 0.583 10.44 0.583s8.353 0.009 10.441-0.537c0.563-0.153 1.077-0.45 1.49-0.862s0.712-0.925 0.866-1.488c0.552-2.087 0.556-6.416 0.556-6.416s0.027-4.353-0.543-6.441zM13.328 20.007l0.007-8 6.943 4.007-6.949 3.993z"></path>
</symbol>
</defs>
</svg>
