<svg xmlns="http://www.w3.org/2000/svg" width="163" height="70" fill="none">
  <g fill="#080c09" clip-path="url(#a)">
    <path d="M18.19 18.067c9.572-.893 18.053 6.148 18.937 15.72.883 9.574-6.167 18.047-15.74 18.92-9.56.873-18.02-6.164-18.902-15.723S8.632 18.958 18.19 18.067m3.471 32.8c8.545-1.026 14.64-8.788 13.608-17.332-1.031-8.545-8.797-14.634-17.34-13.598-8.537 1.036-14.62 8.793-13.59 17.33 1.031 8.537 8.784 14.624 17.322 13.6"/>
    <path d="m26.614 26.334 2.002-.013q.059 8.667.009 17.336l-2.07.026-.004-10.858-.01-2.973c-1.156 2.195-2.469 4.304-3.72 6.446-.792 1.357-1.529 2.914-2.51 4.135a1.3 1.3 0 0 1-.732.036 1 1 0 0 1-.307-.13c-.529-.422-5.505-9.163-6.3-10.49.204 1.573.076 3.288.075 4.875l-.006 8.916-2.117.008c.065-5.77-.038-11.543.017-17.314l2.306.012c1.025 1.833 2.124 3.628 3.187 5.439 1.13 1.925 2.23 3.873 3.43 5.755 1.221-2.23 2.587-4.391 3.9-6.57.93-1.542 1.808-3.167 2.85-4.636M132.622 30.452c.409-.027.828-.038 1.238-.03 1.526.026 3.085.843 4.13 1.925 1.302 1.348 1.907 3.228 1.863 5.083-.044 1.888-.751 3.682-2.14 4.977-1.232 1.147-2.81 1.761-4.497 1.698-1.932-.073-3.213-.887-4.509-2.27-.05.792-.035 1.593-.043 2.386a339 339 0 0 1-.006 4.729 10.3 10.3 0 0 1-2.21-.02c.12-2.44.014-4.94.015-7.386 0-3.64.058-7.288-.024-10.926l2.186-.009c-.043.812-.033 1.632-.045 2.446 1.185-1.478 2.173-2.191 4.042-2.603m.947 11.7c1.359-.255 2.412-.809 3.21-1.982.78-1.168 1.06-2.6.776-3.974-.243-1.225-.969-2.383-2.036-3.053-.84-.527-1.749-.672-2.719-.645-1.347.255-2.439.735-3.247 1.91-.761 1.105-1.088 2.68-.831 3.995a4.7 4.7 0 0 0 2.074 3.068c.863.543 1.773.699 2.773.681M91.83 24.969c.356.366.467 1.332.679 1.85-2.294.963-5.62.765-7.464 2.527-1.104 1.054-1.367 2.511-1.39 3.964.987-1.22 2.069-2.207 3.687-2.477 1.636-.274 3.369.042 4.71 1.04 1.441 1.073 2.243 2.628 2.484 4.39.276 2.024-.228 3.933-1.47 5.55-.9.998-1.946 1.735-3.264 2.058-1.669.41-3.574.197-5.045-.715-1.677-1.042-2.643-2.761-3.061-4.652-.625-2.826-.503-7.05 1.126-9.559 1.437-2.212 3.606-2.65 6.016-3.224 1.001-.238 1.988-.53 2.992-.752m-3.814 17.195c1.42-.21 2.477-.55 3.36-1.771.866-1.196 1.146-2.707.877-4.145-.217-1.16-.828-2.222-1.824-2.879a4.06 4.06 0 0 0-2.05-.67c-1.382.155-2.519.442-3.439 1.582-.863 1.07-1.232 2.516-1.041 3.872.174 1.237.85 2.428 1.866 3.166.687.498 1.425.717 2.25.845M60.748 25.85c.807-.082 1.647-.043 2.46-.049-.11 5.947.02 11.91-.014 17.859l-2.14-.021.002-10.52c-.005-1.204-.03-2.412.043-3.615-1.973 3.644-3.753 7.449-5.915 10.983l-1.391-.008c-2.13-3.49-3.901-7.25-5.87-10.837.077 1.644.025 3.314.026 4.962l.005 9.057c-.714-.019-1.425.028-2.14-.006l.001-10.834c.002-2.33-.044-4.673.084-7l2.382.002c.678 1.161 1.253 2.406 1.868 3.602 1.428 2.774 2.84 5.579 4.38 8.293 2.264-3.838 4.055-7.971 6.218-11.869M71.76 30.456q.492-.026.982-.037c1.714-.028 3.422.44 4.658 1.682 1.654 1.662 1.818 3.756 1.818 5.97-3.568.045-7.142-.004-10.71.012.11.59.22 1.153.5 1.69a4.5 4.5 0 0 0 2.685 2.232c1.388.42 2.784.174 4.032-.514.418-.285.801-.618 1.19-.94.561.32 1.128.587 1.72.843-.88 1.188-2.016 2.054-3.453 2.448-1.84.503-4.081.306-5.738-.67a6.22 6.22 0 0 1-2.888-3.906c-.49-1.973-.216-4.13.854-5.864 1.031-1.672 2.479-2.499 4.35-2.946m-3.23 5.947q2.651-.022 5.303-.015l3.304.002c-.322-1.356-.645-2.613-1.907-3.407-.923-.58-2.043-.669-3.105-.58-1.147.265-2.115.787-2.77 1.798-.443.685-.64 1.42-.825 2.202M116.154 30.453q.481-.025.962-.033c1.709-.018 3.418.49 4.639 1.737 1.605 1.642 1.753 3.738 1.746 5.905-3.554.054-7.116.011-10.671.02.047.648.161 1.206.464 1.79.56 1.08 1.49 1.794 2.65 2.133 1.551.456 2.963.12 4.335-.642.334-.23.632-.512.936-.782.564.303 1.135.549 1.729.785-.93 1.222-2.086 2.107-3.587 2.488-1.867.473-4.011.292-5.677-.714-1.479-.893-2.493-2.364-2.882-4.04-.443-1.915-.134-4.117.936-5.777s2.533-2.462 4.42-2.87m-3.344 5.946c1.693-.005 3.387-.028 5.079-.01l3.586-.002c-.372-1.395-.762-2.753-2.111-3.52-.835-.475-1.853-.556-2.796-.461-1.119.185-2.065.606-2.76 1.542-.551.74-.785 1.569-.998 2.45M153.059 30.64c2.165-.101 4.361-.027 6.53-.02-.111 4.333-.012 8.697-.014 13.035l-2.23-.025-.002-4.453c-1.065-.006-2.468-.215-3.484.027-.317.076-.374.236-.551.482-.753 1.335-1.59 2.624-2.346 3.96q-1.264.027-2.529.006c.825-1.55 1.945-3.52 3.037-4.862a10 10 0 0 1-.385-.199c-.952-.525-1.681-1.371-1.96-2.431-.29-1.106-.132-2.368.46-3.35.797-1.324 2.045-1.833 3.474-2.17m2.287 6.668c.658-.005 1.33.015 1.987-.032a274 274 0 0 1 .012-4.624c-1.308-.005-2.634-.04-3.94.031-.824.258-1.468.537-1.912 1.331-.295.528-.374 1.225-.175 1.799.192.555.638.945 1.163 1.182.885.4 1.916.322 2.865.313M99.064 30.76c2.824-.102 5.672-.036 8.5-.042l-.014 12.934c-.704-.01-1.411-.04-2.109.056l-.011-10.956-1.198.048c-1.069-.052-2.163.018-3.234.043-.03 2.607-.04 8.012-1.866 9.941-.911.962-1.94 1.06-3.184 1.071-.009-.68-.045-1.351-.094-2.03.324-.03.668-.052.985-.132 1.965-.496 2-6.99 2.049-8.628.02-.639-.122-1.786.176-2.305M144.872 30.664l.289-.017c.034.047.084.086.105.141.097.255-.003 11.553-.002 12.86l-1.894.012-.139-.028c-.304-.548.001-11.314-.094-12.942.578.007 1.157-.012 1.735-.026M143.097 25.787l2.178-.007c-.023.773-.005 1.547.006 2.32l-2.243.017q.049-1.164.059-2.33"/>
  </g>
  <defs>
    <clipPath id="a">
      <path fill="#fff" d="M2.41 17.99H159.59v34.791H2.41z"/>
    </clipPath>
  </defs>
</svg>
